<?xml version="1.0" encoding="UTF-8" standalone="no"?>
<!DOCTYPE svg PUBLIC "-//W3C//DTD SVG 1.1//EN" "http://www.w3.org/Graphics/SVG/1.1/DTD/svg11.dtd">
<svg xmlns="http://www.w3.org/2000/svg" version="1.1" viewBox="0.00 0.00 500.00 500.00">
<path fill="#1a3668" d="
  M 112.74 152.48
  C 128.27 141.85 146.01 137.26 164.76 138.00
  C 189.07 138.96 211.76 150.81 227.24 169.41
  Q 227.78 170.06 227.16 170.63
  L 218.40 178.66
  A 0.56 0.55 -46.2 0 1 217.67 178.68
  Q 211.57 173.47 205.60 168.06
  C 202.72 165.45 199.63 163.91 196.34 161.96
  C 166.35 144.26 128.79 150.62 106.27 177.00
  C 87.65 198.82 84.09 231.29 98.14 256.58
  C 118.55 293.32 165.20 304.62 200.22 281.20
  Q 201.00 280.68 201.34 279.86
  Q 201.52 279.41 201.90 279.11
  Q 208.37 274.08 213.84 268.02
  C 215.79 265.85 217.62 262.80 219.73 260.34
  C 225.42 253.68 236.20 258.92 233.89 267.24
  C 233.36 269.13 231.78 270.61 230.73 272.58
  Q 230.01 273.94 229.43 274.69
  C 200.36 311.97 147.17 319.37 109.78 291.78
  C 62.04 256.57 63.84 185.97 112.74 152.48
  Z"
/>
<path fill="#a6a6a6" d="
  M 292.12 281.49
  C 331.06 307.04 383.91 288.54 397.66 244.22
  C 407.92 211.17 390.70 175.77 359.84 161.79
  C 334.08 150.11 303.63 155.22 283.21 174.74
  Q 277.27 180.42 271.46 188.19
  C 267.70 193.21 259.36 191.09 257.84 184.73
  C 257.49 183.24 257.67 182.22 258.56 180.89
  Q 263.85 172.96 269.72 165.46
  Q 271.04 163.77 273.26 162.05
  C 275.00 160.70 276.82 158.91 278.27 157.74
  C 300.94 139.41 331.74 134.01 359.27 143.89
  C 409.02 161.75 429.43 221.41 401.55 266.34
  C 390.59 284.01 372.14 299.04 351.38 303.40
  C 322.02 309.56 293.32 302.84 272.02 281.40
  C 270.30 279.67 268.37 277.18 266.39 275.30
  A 1.00 1.00 0.0 0 1 266.39 273.84
  L 273.72 267.04
  Q 274.13 266.65 274.56 267.01
  C 280.43 271.83 286.45 277.77 292.12 281.49
  Z"
/>
<path fill="#1a3668" d="
  M 131.57 249.38
  C 136.71 251.25 139.88 256.58 136.55 261.60
  Q 133.98 265.48 129.06 264.60
  Q 126.35 264.12 123.74 261.58
  C 110.93 249.11 105.15 231.88 107.97 214.28
  C 113.56 179.26 153.09 159.42 184.74 175.71
  C 191.66 179.27 198.63 185.21 204.65 190.81
  A 0.43 0.42 46.3 0 1 204.64 191.43
  L 195.29 199.97
  A 1.65 1.65 0.0 0 1 192.96 199.86
  Q 190.09 196.69 186.52 193.50
  C 162.46 172.06 124.66 186.76 121.23 218.61
  Q 119.45 235.23 130.78 248.83
  Q 131.10 249.21 131.57 249.38
  Z"
/>
<path fill="#a6a6a6" d="
  M 324.03 261.12
  C 350.71 265.80 376.58 241.37 368.23 214.10
  Q 365.05 203.71 356.09 195.42
  Q 353.61 193.13 353.71 189.65
  C 353.86 184.17 358.45 181.30 363.75 182.47
  Q 364.91 182.73 367.08 184.92
  C 393.26 211.37 385.61 256.74 350.82 271.33
  C 334.78 278.06 315.75 276.31 301.52 265.94
  Q 294.83 261.06 287.99 254.55
  Q 287.56 254.13 287.99 253.73
  L 297.17 245.18
  A 0.74 0.74 0.0 0 1 298.23 245.22
  C 305.72 253.45 312.96 259.18 324.03 261.12
  Z"
/>
<path fill="#1a3668" d="
  M 280.75 331.16
  C 277.96 333.40 277.80 342.29 282.80 342.58
  Q 285.69 342.74 286.49 339.77
  Q 286.63 339.22 287.20 339.24
  L 288.01 339.25
  Q 288.60 339.27 288.45 339.84
  C 286.68 346.52 277.85 345.25 277.12 338.49
  Q 276.78 335.33 277.64 332.79
  C 279.51 327.29 287.20 327.41 288.40 333.26
  Q 288.50 333.77 287.99 333.78
  L 287.03 333.80
  Q 286.50 333.82 286.43 333.30
  C 286.05 330.41 282.64 329.64 280.75 331.16
  Z"
/>
<path fill="#a6a6a6" d="
  M 83.95 333.03
  C 83.46 330.18 79.73 329.43 78.05 331.06
  C 75.87 333.18 75.63 339.34 77.69 341.57
  C 79.48 343.50 83.36 343.15 84.02 340.03
  Q 84.18 339.30 84.92 339.23
  L 85.18 339.21
  Q 85.77 339.15 85.73 339.75
  C 85.42 343.59 80.80 344.96 77.91 343.53
  C 73.21 341.20 73.43 332.07 77.90 329.56
  C 80.74 327.97 85.31 329.42 85.74 333.20
  A 0.50 0.50 0.0 0 1 85.24 333.76
  L 84.81 333.76
  Q 84.07 333.76 83.95 333.03
  Z"
/>
<path fill="#a6a6a6" d="
  M 103.7800 344.1700
  A 7.67 6.08 90.0 0 1 97.7000 336.5000
  A 7.67 6.08 90.0 0 1 103.7800 328.8300
  A 7.67 6.08 90.0 0 1 109.8600 336.5000
  A 7.67 6.08 90.0 0 1 103.7800 344.1700
  Z
  M 103.7749 342.8198
  A 6.29 4.32 89.5 0 0 108.0398 336.4923
  A 6.29 4.32 89.5 0 0 103.6651 330.2402
  A 6.29 4.32 89.5 0 0 99.4002 336.5677
  A 6.29 4.32 89.5 0 0 103.7749 342.8198
  Z"
/>
<path fill="#a6a6a6" d="
  M 148.5100 344.1700
  A 7.65 6.05 90.0 0 1 142.4600 336.5200
  A 7.65 6.05 90.0 0 1 148.5100 328.8700
  A 7.65 6.05 90.0 0 1 154.5600 336.5200
  A 7.65 6.05 90.0 0 1 148.5100 344.1700
  Z
  M 148.5672 342.8295
  A 6.32 4.34 89.3 0 0 152.8297 336.4570
  A 6.32 4.34 89.3 0 0 148.4128 330.1905
  A 6.32 4.34 89.3 0 0 144.1503 336.5630
  A 6.32 4.34 89.3 0 0 148.5672 342.8295
  Z"
/>
<path fill="#a6a6a6" d="
  M 221.80 342.67
  L 222.80 342.73
  Q 226.26 342.92 226.27 339.45
  L 226.30 329.52
  A 0.41 0.41 0.0 0 1 226.74 329.11
  L 227.26 329.15
  A 0.60 0.60 0.0 0 1 227.82 329.76
  Q 227.75 334.03 227.74 338.43
  C 227.73 342.19 226.35 344.07 222.51 344.01
  Q 217.64 343.92 217.48 339.25
  Q 217.30 334.31 217.37 329.57
  Q 217.38 329.01 217.93 329.11
  L 218.54 329.22
  Q 219.02 329.31 219.02 329.79
  L 219.07 339.81
  A 2.89 2.89 0.0 0 0 221.80 342.67
  Z"
/>
<path fill="#a6a6a6" d="
  M 246.98 337.82
  A 2.50 2.47 -24.8 0 0 246.37 337.60
  C 243.69 336.97 238.69 335.09 240.88 331.20
  C 242.90 327.59 250.10 328.44 250.54 332.92
  Q 250.57 333.26 250.23 333.25
  L 249.22 333.24
  Q 248.83 333.23 248.75 332.85
  Q 248.15 330.10 244.76 330.38
  C 242.05 330.60 241.06 333.85 243.80 334.85
  C 246.39 335.79 250.30 336.80 250.56 339.77
  C 251.04 345.45 240.98 345.39 240.11 340.36
  Q 240.03 339.90 240.48 339.80
  Q 240.61 339.77 240.74 339.75
  Q 241.17 339.69 241.39 340.07
  C 244.83 346.08 252.41 340.50 246.98 337.82
  Z"
/>
<path fill="#1a3668" d="
  M 302.38 340.28
  L 301.15 343.74
  A 0.41 0.41 0.0 0 1 300.76 344.01
  L 299.65 344.00
  A 0.41 0.41 0.0 0 1 299.27 343.44
  L 304.70 329.25
  A 0.41 0.41 0.0 0 1 305.08 328.99
  L 306.17 328.98
  A 0.41 0.41 0.0 0 1 306.55 329.24
  L 312.02 343.43
  A 0.41 0.41 0.0 0 1 311.63 343.99
  L 310.48 343.99
  A 0.41 0.41 0.0 0 1 310.09 343.71
  L 308.92 340.33
  A 0.41 0.41 0.0 0 0 308.54 340.06
  L 302.77 340.01
  A 0.41 0.41 0.0 0 0 302.38 340.28
  Z
  M 303.20 338.05
  A 0.33 0.33 0.0 0 0 303.51 338.49
  L 307.77 338.49
  A 0.33 0.33 0.0 0 0 308.08 338.05
  L 305.95 332.22
  A 0.33 0.33 0.0 0 0 305.33 332.22
  L 303.20 338.05
  Z"
/>
<path fill="#1a3668" d="
  M 325.72 338.53
  L 325.74 343.36
  Q 325.75 343.97 325.14 343.98
  L 324.26 344.00
  Q 323.75 344.01 323.75 343.51
  L 323.75 329.53
  Q 323.75 329.09 324.19 329.06
  C 327.00 328.89 331.85 328.38 333.60 330.84
  C 335.42 333.40 334.44 337.40 331.01 337.97
  Q 329.91 338.15 326.21 338.05
  Q 325.72 338.04 325.72 338.53
  Z
  M 325.72 331.02
  L 325.72 336.16
  A 0.40 0.40 0.0 0 0 326.13 336.56
  L 329.35 336.55
  A 3.22 2.85 -0.1 0 0 332.56 333.69
  L 332.56 333.45
  A 3.22 2.85 -0.1 0 0 329.33 330.61
  L 326.11 330.62
  A 0.40 0.40 0.0 0 0 325.72 331.02
  Z"
/>
<rect fill="#1a3668" x="346.66" y="329.02" width="1.96" height="14.96" rx="0.41"/>
<path fill="#1a3668" d="
  M 364.98 330.60
  L 360.67 330.61
  A 0.33 0.33 0.0 0 1 360.34 330.23
  L 360.47 329.29
  A 0.33 0.33 0.0 0 1 360.80 329.00
  L 371.84 329.00
  A 0.33 0.33 0.0 0 1 372.17 329.35
  L 372.12 330.31
  A 0.33 0.33 0.0 0 1 371.79 330.62
  L 367.59 330.59
  A 0.33 0.33 0.0 0 0 367.26 330.92
  L 367.26 343.67
  A 0.33 0.33 0.0 0 1 366.92 344.00
  L 365.59 343.98
  A 0.33 0.33 0.0 0 1 365.27 343.65
  L 365.31 330.93
  A 0.33 0.33 0.0 0 0 364.98 330.60
  Z"
/>
<path fill="#1a3668" d="
  M 385.62 340.30
  L 384.42 343.72
  A 0.41 0.41 0.0 0 1 384.03 343.99
  L 382.89 344.00
  A 0.41 0.41 0.0 0 1 382.50 343.44
  L 387.93 329.31
  A 0.41 0.41 0.0 0 1 388.30 329.04
  L 389.43 329.02
  A 0.41 0.41 0.0 0 1 389.82 329.28
  L 395.28 343.43
  A 0.41 0.41 0.0 0 1 394.90 343.99
  L 393.72 344.00
  A 0.41 0.41 0.0 0 1 393.33 343.72
  L 392.14 340.32
  A 0.41 0.41 0.0 0 0 391.75 340.05
  L 386.01 340.03
  A 0.41 0.41 0.0 0 0 385.62 340.30
  Z
  M 386.48 338.06
  A 0.32 0.32 0.0 0 0 386.79 338.49
  L 391.00 338.48
  A 0.32 0.32 0.0 0 0 391.30 338.05
  L 389.18 332.25
  A 0.32 0.32 0.0 0 0 388.58 332.25
  L 386.48 338.06
  Z"
/>
<path fill="#1a3668" d="
  M 409.30 342.48
  L 415.80 342.36
  A 0.33 0.33 0.0 0 1 416.14 342.70
  L 416.09 343.69
  A 0.33 0.33 0.0 0 1 415.76 344.00
  L 407.33 343.99
  A 0.33 0.33 0.0 0 1 407.00 343.66
  L 407.00 329.35
  A 0.33 0.33 0.0 0 1 407.33 329.02
  L 408.64 329.00
  A 0.33 0.33 0.0 0 1 408.97 329.33
  L 408.96 342.15
  A 0.33 0.33 0.0 0 0 409.30 342.48
  Z"
/>
<path fill="#a6a6a6" d="
  M 168.72 332.79
  L 168.74 343.34
  Q 168.74 343.93 168.16 343.88
  L 167.77 343.85
  A 0.58 0.57 -87.9 0 1 167.24 343.27
  L 167.21 329.65
  Q 167.21 329.25 167.60 329.26
  L 168.90 329.27
  Q 169.55 329.27 169.79 329.88
  L 173.78 339.98
  Q 174.46 341.71 175.14 339.97
  L 179.14 329.80
  Q 179.34 329.28 179.90 329.26
  L 181.22 329.22
  Q 181.73 329.21 181.72 329.72
  L 181.68 343.51
  A 0.37 0.37 0.0 0 1 181.24 343.87
  L 180.55 343.74
  Q 180.18 343.68 180.18 343.30
  L 180.29 332.55
  Q 180.31 330.63 179.62 332.42
  L 175.90 342.02
  Q 174.45 345.77 172.98 342.03
  L 169.31 332.68
  Q 168.72 331.19 168.72 332.79
  Z"
/>
<path fill="#a6a6a6" d="
  M 203.01 336.43
  C 205.16 337.61 205.64 340.46 204.25 342.23
  C 202.62 344.31 198.07 343.86 195.61 343.71
  Q 195.23 343.68 195.23 343.30
  L 195.24 329.73
  Q 195.24 329.37 195.60 329.35
  C 199.40 329.14 205.46 328.41 204.48 333.73
  C 204.27 334.86 203.62 335.12 202.92 335.93
  Q 202.65 336.24 203.01 336.43
  Z
  M 196.67 330.73
  L 196.75 335.31
  A 0.27 0.27 0.0 0 0 197.03 335.57
  L 200.31 335.51
  A 2.73 2.40 -1.1 0 0 202.99 333.06
  L 202.99 332.74
  A 2.73 2.40 -1.1 0 0 200.21 330.39
  L 196.93 330.46
  A 0.27 0.27 0.0 0 0 196.67 330.73
  Z
  M 196.74 337.01
  L 196.72 342.25
  A 0.30 0.30 0.0 0 0 197.01 342.55
  L 200.27 342.57
  A 3.08 2.80 0.3 0 0 203.37 339.79
  L 203.37 339.55
  A 3.08 2.80 0.3 0 0 200.31 336.73
  L 197.05 336.71
  A 0.30 0.30 0.0 0 0 196.74 337.01
  Z"
/>
<path fill="#a6a6a6" d="
  M 124.36 342.52
  L 131.13 342.58
  A 0.26 0.26 0.0 0 1 131.39 342.82
  L 131.42 343.39
  A 0.26 0.26 0.0 0 1 131.17 343.66
  L 122.65 343.74
  A 0.26 0.26 0.0 0 1 122.39 343.48
  L 122.36 331.25
  A 0.26 0.26 0.0 0 1 122.80 331.06
  L 124.08 332.30
  A 0.26 0.26 0.0 0 1 124.16 332.49
  L 124.10 342.26
  A 0.26 0.26 0.0 0 0 124.36 342.52
  Z"
/>
</svg>
