<svg xmlns="http://www.w3.org/2000/svg" version="1.1" viewBox="77.1 143.94 346.14 206.4">
<path fill="#ffffff" d="   M 196.40 165.67   Q 176.78 155.77 154.73 159.11   C 131.63 162.61 112.62 176.61 101.92 197.29   Q 93.97 212.67 94.55 230.62   Q 95.50 259.58 115.82 279.53   C 138.13 301.43 171.60 305.96 199.17 291.10   Q 203.66 288.68 208.52 284.20   Q 212.85 280.22 216.99 276.09   C 219.74 273.35 222.04 270.23 224.42 267.15   C 231.32 258.25 243.43 267.06 237.28 276.62   Q 233.53 282.44 229.32 286.81   Q 201.26 315.90 160.91 314.75   Q 156.74 314.63 152.75 313.85   C 149.20 313.15 145.64 312.66 142.14 311.70   C 108.43 302.45 83.76 272.70 80.27 238.11   Q 76.67 202.48 99.80 174.55   C 111.86 160.00 129.33 149.64 148.13 145.78   Q 175.92 140.08 201.55 151.99   C 213.25 157.42 222.96 165.14 231.57 174.84   Q 232.82 176.24 231.48 177.52   Q 228.05 180.78 224.43 184.17   Q 222.92 185.58 221.43 184.15   Q 215.73 178.73 209.42 173.55   Q 205.26 170.14 196.40 165.67   Z"/>
<path fill="#ffffff" d="   M 368.21 169.91   Q 365.88 168.64 360.47 166.51   C 341.89 159.20 321.05 161.11 303.27 170.12   C 296.75 173.43 290.12 178.84 284.94 184.07   Q 281.14 187.91 277.53 193.09   C 274.10 198.03 267.64 199.10 263.86 193.83   C 261.16 190.08 263.24 186.99 265.48 183.88   Q 269.43 178.37 273.21 173.45   Q 277.11 168.38 286.45 161.51   Q 314.03 141.22 348.72 146.22   Q 358.54 147.63 367.55 151.54   C 393.22 162.67 412.03 184.64 417.46 212.16   Q 424.50 247.84 403.54 277.20   Q 386.07 301.69 357.76 309.36   Q 350.64 311.29 337.00 311.83   Q 329.67 312.12 317.43 309.94   C 299.72 306.79 283.39 295.56 271.49 281.71   A 1.46 1.46 0.0 0 1 271.60 279.70   L 278.08 273.56   Q 279.07 272.62 280.11 273.50   C 285.32 277.86 290.02 282.79 295.42 286.54   Q 317.32 301.76 343.38 298.83   Q 373.08 295.50 391.68 271.68   C 405.39 254.12 408.89 230.71 401.92 209.69   Q 393.26 183.60 368.21 169.91   Z"/>
<path fill="#ffffff" d="   M 176.34 191.05   Q 164.95 188.01 154.72 190.97   C 137.85 195.84 125.75 210.90 125.84 228.75   Q 125.92 243.36 134.99 254.16   Q 135.86 255.19 136.99 255.81   C 140.86 257.93 143.50 260.75 142.71 265.27   C 141.99 269.42 137.94 271.79 133.90 270.85   Q 130.29 270.02 127.60 267.12   Q 109.81 248.02 112.52 223.03   Q 114.01 209.31 122.54 198.00   Q 136.39 179.63 159.27 176.64   C 179.02 174.07 195.02 182.94 208.78 196.32   Q 209.43 196.95 209.05 197.76   Q 208.74 198.43 208.18 198.96   Q 204.09 202.77 200.48 206.16   A 2.22 2.22 0.0 0 1 197.19 205.88   C 191.97 198.98 184.72 193.28 176.34 191.05   Z"/>
<path fill="#ffffff" d="   M 334.95 267.93   C 366.63 267.72 386.45 234.61 366.81 207.73   C 364.21 204.17 359.33 201.48 358.75 196.79   C 358.08 191.43 362.51 187.63 367.80 188.55   C 370.25 188.98 371.84 191.06 373.47 192.87   Q 389.78 210.96 387.56 233.50   C 384.44 264.98 355.65 287.93 323.97 280.21   Q 314.68 277.94 307.58 272.97   Q 299.51 267.31 293.15 261.19   A 1.05 1.05 0.0 0 1 293.16 259.67   L 301.75 251.56   A 1.27 1.27 0.0 0 1 303.59 251.67   C 311.89 261.65 322.27 268.01 334.95 267.93   Z"/>
<path fill="#ffffff" d="   M 81.21 346.39   Q 82.51 348.74 84.84 347.54   C 86.16 346.85 86.48 345.36 88.02 344.68   A 1.00 1.00 0.0 0 1 89.41 345.76   Q 88.94 348.79 85.92 349.74   C 74.96 353.20 74.23 335.12 83.62 334.85   Q 88.43 334.71 89.50 339.39   A 1.03 1.02 76.4 0 1 88.77 340.60   C 86.89 341.11 86.14 339.34 85.16 338.17   A 1.41 1.38 -17.2 0 0 84.21 337.68   C 79.30 337.27 79.79 343.83 81.21 346.39   Z"/>
<path fill="#ffffff" d="   M 106.4602 350.3220   A 7.79 6.55 93.9 0 1 100.4552 342.1045   A 7.79 6.55 93.9 0 1 107.5198 334.7780   A 7.79 6.55 93.9 0 1 113.5248 342.9955   A 7.79 6.55 93.9 0 1 106.4602 350.3220   Z   M 107.2433 347.8586   A 5.18 3.41 86.2 0 0 110.3025 342.4640   A 5.18 3.41 86.2 0 0 106.5567 337.5214   A 5.18 3.41 86.2 0 0 103.4975 342.9160   A 5.18 3.41 86.2 0 0 107.2433 347.8586   Z"/>
<path fill="#ffffff" d="   M 129.34 347.61   L 133.73 347.47   Q 134.75 347.44 135.10 348.41   Q 135.23 348.77 135.16 349.15   Q 134.97 350.14 133.96 350.12   L 126.21 349.94   A 0.98 0.98 0.0 0 1 125.25 348.96   L 125.24 336.27   Q 125.24 335.05 126.46 334.94   Q 126.69 334.91 126.92 334.92   Q 128.41 334.94 128.42 336.43   L 128.53 346.84   A 0.78 0.78 0.0 0 0 129.34 347.61   Z"/>
<path fill="#ffffff" d="   M 151.9455 350.3398   A 7.80 6.57 90.4 0 1 145.4302 342.4941   A 7.80 6.57 90.4 0 1 152.0545 334.7402   A 7.80 6.57 90.4 0 1 158.5698 342.5859   A 7.80 6.57 90.4 0 1 151.9455 350.3398   Z   M 152.0014 347.8794   A 5.18 3.43 89.1 0 0 155.3496 342.6461   A 5.18 3.43 89.1 0 0 151.8386 337.5206   A 5.18 3.43 89.1 0 0 148.4904 342.7539   A 5.18 3.43 89.1 0 0 152.0014 347.8794   Z"/>
<path fill="#ffffff" d="   M 172.95 340.78   Q 173.51 344.49 173.42 348.45   Q 173.38 350.19 171.64 350.18   L 171.33 350.18   A 1.45 1.45 0.0 0 1 169.90 348.60   Q 170.49 342.10 169.90 336.82   Q 169.70 335.05 171.48 334.94   L 172.50 334.87   Q 174.30 334.75 174.76 336.48   Q 175.95 340.87 177.64 344.63   Q 178.07 345.59 178.39 344.59   L 181.22 336.01   A 1.47 1.45 1.8 0 1 182.24 335.06   Q 183.76 334.66 185.27 335.05   Q 185.95 335.23 185.95 335.94   L 185.96 349.03   A 1.05 1.05 0.0 0 1 184.97 350.08   L 184.03 350.14   A 1.33 1.32 88.8 0 1 182.62 348.78   L 182.82 340.74   Q 182.83 340.59 182.70 340.51   Q 182.55 340.41 182.43 340.46   Q 182.27 340.55 182.23 340.72   Q 181.19 345.10 179.35 349.19   A 1.67 1.66 -48.0 0 1 176.39 349.35   C 174.81 346.62 174.57 343.42 173.31 340.68   Q 172.75 339.44 172.95 340.78   Z"/>
<path fill="#ffffff" d="   M 226.07 347.81   Q 227.25 348.16 228.77 346.68   A 1.74 1.74 0.0 0 0 229.30 345.36   L 229.04 336.08   A 1.14 1.13 -1.2 0 1 230.17 334.91   L 231.19 334.91   Q 232.50 334.90 232.51 336.21   Q 232.52 340.36 232.50 345.17   C 232.48 351.79 221.31 352.00 221.08 345.80   Q 220.92 341.38 220.91 336.18   Q 220.90 335.01 222.07 334.99   L 223.44 334.96   Q 224.38 334.95 224.31 335.88   Q 223.95 341.12 224.23 345.49   Q 224.35 347.29 226.07 347.81   Z"/>
<path fill="#ffffff" d="   M 247.77 338.31   A 1.30 1.29 -52.5 0 0 248.03 340.34   Q 249.87 341.42 251.87 341.97   C 255.63 343.00 256.72 348.42 252.61 349.76   C 249.85 350.66 245.40 350.33 244.11 347.20   C 243.68 346.18 244.52 345.17 245.57 345.28   Q 246.09 345.33 246.39 345.74   C 247.46 347.18 250.35 349.19 251.66 346.99   A 1.71 1.70 22.3 0 0 250.60 344.46   Q 248.17 343.87 246.22 342.62   C 243.49 340.86 243.41 336.83 246.62 335.52   Q 251.15 333.67 254.29 336.67   Q 255.49 337.82 254.77 339.29   Q 254.70 339.45 254.56 339.56   Q 253.74 340.27 252.83 339.68   Q 252.10 339.21 251.55 338.54   C 250.63 337.44 248.79 337.29 247.77 338.31   Z"/>
<path fill="#ffffff" d="   M 287.94 337.65   C 283.52 337.32 283.98 342.62 284.59 345.29   C 285.06 347.37 287.51 348.80 289.19 347.03   Q 290.13 346.04 291.33 345.18   A 1.26 1.25 59.8 0 1 293.21 345.68   Q 293.55 346.41 293.06 347.19   Q 290.59 351.13 285.47 350.01   C 283.52 349.58 282.09 348.10 281.63 346.17   C 280.74 342.41 280.76 336.55 285.33 335.28   Q 291.23 333.64 293.24 338.90   A 1.03 1.02 -16.4 0 1 292.49 340.26   Q 291.74 340.41 291.01 340.19   A 1.40 1.37 82.1 0 1 290.22 339.58   C 289.71 338.71 289.04 337.73 287.94 337.65   Z"/>
<path fill="#ffffff" d="   M 312.46 347.22   L 309.09 347.19   Q 308.32 347.19 307.96 347.86   L 307.20 349.25   A 1.69 1.69 0.0 0 1 305.51 350.12   L 304.55 350.01   A 0.85 0.84 14.8 0 1 303.87 348.85   Q 306.34 342.79 308.52 336.30   C 308.98 334.95 310.38 334.47 311.59 335.12   Q 312.04 335.36 312.22 335.84   L 317.29 348.87   A 0.78 0.78 0.0 0 1 316.72 349.92   L 315.70 350.14   Q 314.65 350.36 314.15 349.42   L 313.24 347.69   Q 312.99 347.23 312.46 347.22   Z   M 310.00 341.45   Q 309.43 342.41 309.21 343.48   Q 309.06 344.23 309.77 344.52   Q 310.50 344.81 311.26 344.68   Q 312.21 344.52 312.08 343.56   Q 311.86 341.95 310.88 340.31   Q 310.53 339.72 310.28 340.36   Q 310.21 340.53 310.21 340.71   Q 310.20 341.11 310.00 341.45   Z"/>
<path fill="#ffffff" d="   M 392.50 347.91   L 392.04 349.10   Q 391.77 349.80 391.05 350.03   Q 390.27 350.29 389.64 350.15   Q 388.24 349.86 388.78 348.54   Q 391.41 342.01 393.39 336.39   C 393.76 335.35 394.54 334.76 395.69 334.88   Q 396.80 334.99 397.20 336.03   L 402.00 348.91   A 0.79 0.78 -12.3 0 1 401.31 349.97   L 400.76 350.01   Q 399.47 350.09 398.89 348.94   Q 397.44 346.10 393.20 347.28   Q 392.69 347.42 392.50 347.91   Z   M 397.06 343.45   L 395.77 340.24   Q 395.39 339.29 395.08 340.26   L 394.06 343.45   A 1.01 1.00 -76.9 0 0 394.87 344.76   Q 395.99 344.91 396.77 344.39   A 0.78 0.77 62.2 0 0 397.06 343.45   Z"/>
<path fill="#ffffff" d="   M 208.07 342.93   Q 208.47 343.76 208.84 344.62   C 210.04 347.46 207.81 349.74 204.96 349.93   Q 201.76 350.15 198.67 350.02   A 0.85 0.85 0.0 0 1 197.86 349.12   Q 198.20 342.45 197.72 335.99   A 0.86 0.86 0.0 0 1 198.52 335.07   Q 201.76 334.86 205.02 335.10   C 208.77 335.39 209.80 338.67 208.13 341.54   Q 207.73 342.22 208.07 342.93   Z   M 205.4481 339.4645   A 2.33 1.84 -5.8 0 0 202.9441 337.8694   A 2.33 1.84 -5.8 0 0 200.8119 339.9355   A 2.33 1.84 -5.8 0 0 203.3159 341.5306   A 2.33 1.84 -5.8 0 0 205.4481 339.4645   Z   M 206.0008 345.4908   A 2.62 2.13 -4.8 0 0 203.2118 343.5875   A 2.62 2.13 -4.8 0 0 200.7792 345.9292   A 2.62 2.13 -4.8 0 0 203.5682 347.8325   A 2.62 2.13 -4.8 0 0 206.0008 345.4908   Z"/>
<path fill="#ffffff" d="   M 331.61 345.54   L 331.46 348.47   Q 331.39 349.85 330.03 350.09   L 329.61 350.16   Q 328.27 350.39 328.28 349.03   L 328.45 335.94   A 0.94 0.94 0.0 0 1 329.37 335.01   Q 332.55 334.94 335.61 335.23   C 341.26 335.75 341.49 343.95 335.48 344.69   Q 333.74 344.91 332.15 345.00   A 0.57 0.57 0.0 0 0 331.61 345.54   Z   M 331.51 338.79   L 331.51 341.51   A 0.95 0.95 0.0 0 0 332.47 342.46   L 333.71 342.45   A 2.91 2.11 -0.2 0 0 336.61 340.33   L 336.61 339.93   A 2.91 2.11 -0.2 0 0 333.69 337.83   L 332.45 337.84   A 0.95 0.95 0.0 0 0 331.51 338.79   Z"/>
<rect fill="#ffffff" x="-1.57" y="-7.48" transform="translate(353.24,342.55) rotate(-0.1)" width="3.14" height="14.96" rx="0.81"/>
<path fill="#ffffff" d="   M 374.70 337.80   A 1.01 1.01 0.0 0 0 373.85 338.81   L 373.99 348.78   A 1.38 1.37 -2.9 0 1 372.73 350.17   Q 372.47 350.20 372.20 350.24   Q 370.46 350.50 370.58 348.76   C 370.81 345.47 371.40 341.58 370.82 338.43   A 0.71 0.70 -4.0 0 0 370.15 337.85   L 367.17 337.74   Q 365.90 337.69 365.80 336.42   L 365.78 336.05   A 0.94 0.93 88.3 0 1 366.73 335.04   Q 371.57 335.10 377.17 335.17   Q 377.83 335.18 378.25 335.68   Q 378.72 336.24 378.26 336.90   Q 378.02 337.25 377.60 337.32   L 374.70 337.80   Z"/>
<path fill="#ffffff" d="   M 417.22 347.71   Q 419.28 348.31 421.65 347.67   A 1.14 1.13 58.1 0 1 422.70 347.92   Q 423.50 348.64 423.11 349.55   A 0.75 0.74 11.2 0 1 422.42 350.01   L 414.28 350.02   A 0.99 0.98 89.7 0 1 413.29 349.03   L 413.25 336.27   Q 413.24 335.03 414.48 335.00   L 414.93 334.99   Q 416.40 334.96 416.43 336.43   L 416.64 346.95   Q 416.65 347.54 417.22 347.71   Z"/>
</svg>